<svg width="161" height="176" viewBox="0 0 161 176" fill="none" xmlns="http://www.w3.org/2000/svg">
<path d="M73.6596 74.7144L7.13505 108.208L24.8436 143.648L91.3211 109.524L73.6596 74.7144Z" fill="#02F18B"/>
<path d="M68.8669 170.149L91.3203 109.524L47.8026 131.791L46.8842 136.296L65.7467 170.382C67.3574 171.783 68.498 170.81 68.8669 170.149Z" fill="#2495FD"/>
<path d="M36.6961 69.7827L41.5087 29.4772C41.5087 26.1083 38.3003 24.464 36.6961 24.063L0 16.8441V19.852L36.6961 69.7827Z" fill="#FD3166"/>
<path d="M80.6108 3.60945L72.7903 73.3921L36.0942 69.7827L43.9147 0L80.6108 3.60945Z" fill="#F6B362"/>
<path d="M158.99 32.6882L96.6945 42.42C104.877 48.3291 125.331 62.1654 129.542 65.1732C134.526 68.7336 135.557 65.7748 137.08 64.0538L159.063 35.0933L158.99 32.6882Z" fill="#473DD9"/>
<path d="M97.0566 42.3135L76.0015 72.9938L133.753 112.698L154.808 82.0175L97.0566 42.3135Z" fill="#F491FE"/>
</svg>
